<?xml version="1.0" encoding="UTF-8" standalone="no"?>
<svg
   xmlns:dc="http://purl.org/dc/elements/1.1/"
   xmlns:cc="http://creativecommons.org/ns#"
   xmlns:rdf="http://www.w3.org/1999/02/22-rdf-syntax-ns#"
   xmlns:svg="http://www.w3.org/2000/svg"
   xmlns="http://www.w3.org/2000/svg"
   id="svg8"
   version="1.1"
   viewBox="0 0 76.147003 54.681999"
   height="54.681999mm"
   width="76.147003mm">
  <defs
     id="defs2">
    <clipPath
       clipPathUnits="userSpaceOnUse"
       id="clipPath3715">
      <path
         d="M 0,576 H 576 V 0 H 0 Z"
         id="path3713" />
    </clipPath>
    <clipPath
       clipPathUnits="userSpaceOnUse"
       id="clipPath3903">
      <path
         d="M 0,576 H 576 V 0 H 0 Z"
         id="path3901" />
    </clipPath>
  </defs>
  <metadata
     id="metadata5">
    <rdf:RDF>
      <cc:Work
         rdf:about="">
        <dc:format>image/svg+xml</dc:format>
        <dc:type
           rdf:resource="http://purl.org/dc/dcmitype/StillImage" />
        <dc:title></dc:title>
      </cc:Work>
    </rdf:RDF>
  </metadata>
  <g
     transform="translate(0,-242.318)"
     id="layer1">
    <path
       id="path3719"
       d="m 35.578267,242.31961 c -0.104235,0.003 -0.210116,0.009 -0.317294,0.0186 -1.692981,0.15417 -2.884273,1.0857 -3.676261,2.63756 -1.23472,-0.68933 -2.509729,-0.91777 -3.85558,-0.44751 -1.325739,0.46319 -2.191646,1.40334 -2.755386,2.72696 -1.056222,-0.82832 -2.258494,-0.84598 -3.468524,-0.84388 -2.821868,0.004 -5.644115,-0.0182 -8.465632,0.0181 -0.644173,0.008 -1.314362,0.13038 -1.921846,0.34417 -0.764468,0.26952 -1.2149293,0.90509 -1.4862145,1.6738 -0.07338,0.20743 -0.2355771,0.44029 -0.4221956,0.5426 -1.7116796,0.9405 -2.8453794,2.36736 -3.3346813,4.22403 -0.7083769,2.68887 -1.3502719,5.39775 -1.9249469,8.11837 -1.2943417,6.12599 -2.5556395,12.25998 -3.78013118,18.40043 -0.82408976,4.13526 1.40548248,7.19726 5.59965748,7.81709 3.2787166,0.48472 6.413868,-1.04316 8.076509,-3.99097 1.884188,-3.34222 3.738094,-6.70128 5.583124,-10.06502 0.238125,-0.43462 0.460819,-0.58313 0.966348,-0.44907 0.687565,0.18238 1.4019,0.28401 2.110984,0.35915 0.405693,0.0434 0.528738,0.21203 0.568957,0.5948 0.200729,1.92158 0.66948,3.77583 1.488281,5.53196 0.92392,1.97943 2.23271,3.64682 3.998722,4.95422 0.18909,0.14005 0.358616,0.44796 0.359667,0.67903 0.02019,3.94514 0.0145,7.89049 0.01188,11.83597 h 2.299602 c -0.02362,-1.85349 0.0016,-3.70835 0.0016,-5.56246 h 0.0052 c 0,-2.29517 -0.01069,-4.59071 0.0067,-6.88588 0.005,-0.70203 -0.226025,-1.233 -0.827854,-1.61541 -2.270131,-1.44216 -3.611089,-3.56276 -4.414719,-6.0756 -0.54398,-1.70039 -0.721632,-3.45493 -0.785482,-5.22449 -0.0804,-2.2225 1.243682,-3.9461 3.418912,-4.47879 1.95368,-0.47872 3.907144,-0.95968 5.866826,-1.41335 0.355949,-0.0822 0.750697,-0.10332 1.110527,-0.0455 2.171348,0.35031 4.342691,0.70864 6.504512,1.11363 0.95391,0.17886 1.925772,0.37709 2.816883,0.74362 0.994839,0.40887 1.10032,1.39625 0.307991,2.14096 -0.278701,0.26176 -0.644385,0.46222 -1.005623,0.59944 -0.94897,0.36195 -1.938938,0.43143 -2.944008,0.28009 -1.8415,-0.27658 -3.684635,-0.54295 -5.524727,-0.82941 -0.673809,-0.10479 -1.244915,0.0317 -1.779736,0.48111 -1.181449,0.99131 -2.395101,1.94481 -3.589962,2.92024 -0.172508,0.14146 -0.341101,0.30282 -0.464571,0.48627 -0.289629,0.43074 -0.308182,0.88894 5.29e-4,1.31827 0.31079,0.43144 0.755033,0.54655 1.253151,0.40721 0.213082,-0.06 0.41578,-0.17302 0.608751,-0.28732 1.149001,-0.67839 2.382139,-1.16097 3.703648,-1.28726 3.485441,-0.33373 6.983198,-0.49123 10.482048,-0.27957 1.136311,0.0684 2.266971,0.31469 3.387392,0.54363 1.438978,0.29421 2.459206,1.14214 2.881476,2.56419 0.20038,0.6731 0.321157,1.40405 0.296106,2.1022 -0.0723,1.99743 -0.987671,3.68496 -2.179712,5.22448 -0.4759,0.6149 -0.688427,1.2533 -0.684196,2.02624 0.158046,3.89762 -0.09422,7.57516 -0.03824,11.03343 h 2.304769 c 0.0054,-2.08233 0.02066,-5.39753 0.05478,-10.758 0.003,-0.3616 0.154392,-0.77487 0.365352,-1.07332 1.18745,-1.68134 2.111608,-3.46864 2.423107,-5.52886 0.296342,-1.96215 -0.0905,-3.77839 -1.182356,-5.43998 -0.0515,-0.078 -0.09961,-0.15875 -0.14056,-0.24236 -0.0141,-0.0296 -0.0021,-0.0718 -0.0021,-0.0909 1.078799,-0.25259 2.1492,-0.5218 3.230811,-0.73277 0.13653,-0.0265 0.396349,0.21703 0.491958,0.39377 1.789991,3.308 3.514247,6.65212 5.355747,9.93118 1.49648,2.66454 3.773341,4.20905 6.921542,4.18682 1.416738,-0.01 2.759654,-0.41132 3.951695,-1.1839 2.362552,-1.53176 3.085541,-3.82336 2.566252,-6.43992 -1.712741,-8.63 -3.513133,-17.24236 -5.306653,-25.85579 -0.162989,-0.78352 -0.419695,-1.58069 -0.805635,-2.27531 -0.42227,-0.75953 -0.964279,-1.49719 -1.603521,-2.07998 -0.721418,-0.65758 -1.53417,-1.14143 -1.935281,-2.14508 -0.31115,-0.77823 -1.162555,-1.08503 -2.000396,-1.1958 -0.352779,-0.0469 -0.713208,-0.0536 -1.070218,-0.0543 -2.76507,-0.004 -5.530715,-0.0189 -8.296135,0.01 -0.687908,0.007 -1.372899,0.17241 -2.06189,0.23874 -0.15027,0.0141 -0.376888,-0.0362 -0.458369,-0.14211 -1.93216,-2.51743 -3.776387,-2.89093 -6.655409,-1.28932 -0.753887,-0.99554 -1.728353,-1.69072 -3.001883,-1.88051 -1.254828,-0.18733 -2.385308,0.13919 -3.446817,0.92553 -0.969367,-1.25908 -2.203693,-1.99943 -3.767211,-1.95802 z m 0.107487,2.32182 h 5.29e-4 c 1.206849,0.0187 2.045896,0.96625 2.044835,2.2934 -0.0021,2.82187 0.0061,5.64376 0.0021,8.46563 -0.0021,1.10066 -0.488458,1.86939 -1.358059,2.19677 -1.351838,0.50905 -2.769584,-0.45201 -2.803446,-1.94355 -0.0339,-1.5046 -0.0072,-3.01019 -0.0072,-4.51549 -0.0011,0 -0.0016,1.6e-4 -0.0036,5.3e-4 0,-1.41111 -0.0084,-2.82204 0.0016,-4.23282 0.01061,-1.36911 0.877014,-2.28351 2.123384,-2.26446 z m 6.379972,0.98289 h 5.29e-4 c 1.088816,-0.0329 2.078492,0.7656 2.105297,1.84846 0.0519,2.13889 0.055,4.28071 0,6.41925 -0.0286,1.11725 -1.024255,1.9064 -2.147154,1.85983 -1.09996,-0.0459 -1.91125,-0.87843 -1.929599,-2.01331 -0.01619,-1.01353 -0.0041,-2.02728 -0.0031,-3.04116 h 5.29e-4 c 7.94e-4,-1.03293 -0.01463,-2.06525 0.0052,-3.09748 0.02119,-1.11778 0.858065,-1.94113 1.968358,-1.97559 z m -12.867434,0.9834 c 1.094682,0.0247 1.963873,0.82331 2.000912,1.89187 0.0314,0.90064 0.0062,1.80321 0.0062,2.70526 h 0.0047 c 0,0.84526 0.01508,1.69138 -0.0036,2.53628 -0.02471,1.12783 -0.846982,1.96644 -1.942002,2.01125 -1.131009,0.0462 -2.105517,-0.73508 -2.140437,-1.86397 -0.0561,-1.81963 -0.04858,-3.64325 0.0036,-5.46323 0.0303,-1.05304 1.000355,-1.84251 2.070674,-1.81746 z m 19.377631,0.001 c 1.012849,-0.01 1.939769,0.63186 2.026748,1.61643 0.114649,1.30001 0.110694,2.62414 0.0041,3.92483 -0.084,1.02518 -1.126752,1.72476 -2.154391,1.64538 -1.06363,-0.0815 -1.871466,-0.93094 -1.896525,-2.00867 -0.0123,-0.52457 -0.0021,-1.05068 -0.0021,-1.57561 2.6e-4,-0.54434 -0.0118,-1.08831 0.0031,-1.63194 0.0286,-1.03364 0.803971,-1.8622 1.815391,-1.95957 0.0681,-0.007 0.136086,-0.0102 0.203607,-0.0108 z m 14.793409,2.10943 h 5.3e-4 c 1.018468,0.001 0.983257,0.0404 1.290875,0.99115 0.129821,0.40146 0.480677,0.86846 0.852146,1.0325 1.617121,0.71473 2.465899,1.98562 2.838069,3.63027 0.72249,3.19017 1.458106,6.37859 2.113566,9.58287 1.104202,5.39539 2.157802,10.80131 3.210139,16.20728 0.109713,0.56444 0.131419,1.16201 0.08837,1.73633 -0.0981,1.30493 -0.774224,2.24764 -1.952853,2.82618 -2.768949,1.35854 -5.770348,0.37727 -7.270358,-2.40192 -1.893359,-3.50803 -3.767696,-7.02642 -5.650818,-10.54044 -0.0981,-0.18204 -0.190134,-0.36822 -0.294555,-0.54673 -0.423331,-0.72707 -0.99409,-0.97238 -1.758548,-0.64958 -2.165712,0.9144 -4.452477,1.08399 -6.751526,1.07694 -0.980371,-0.003 -1.959671,-0.25584 -3.028238,-0.40824 0.153458,-0.23742 0.260694,-0.40283 0.367935,-0.56793 1.194159,-1.84609 0.717579,-3.93141 -1.16272,-5.06842 -1.020241,-0.61701 -2.159301,-0.83758 -3.31711,-1.02526 -2.39395,-0.387 -4.778687,-0.82734 -7.174756,-1.20199 -0.523521,-0.0818 -1.095643,-0.0619 -1.612821,0.0548 -2.052812,0.4639 -4.09538,0.97647 -6.137611,1.48621 -2.80529,0.70063 -4.761394,2.92888 -5.102529,5.78673 -0.01304,0.10936 -0.04255,0.21735 -0.08733,0.43925 -0.873479,-0.1718 -1.741429,-0.30594 -2.589506,-0.51831 -1.368425,-0.34255 -1.740786,-0.20649 -2.425176,1.02577 -1.972027,3.55141 -3.910454,7.12124 -5.927286,10.6469 -1.173692,2.05105 -2.949678,3.17841 -5.397603,2.98896 -0.4452064,-0.0342 -0.8929317,-0.14205 -1.3208502,-0.27646 -2.2327314,-0.70098 -3.2514884,-2.29137 -2.7734736,-4.59042 1.7787037,-8.55733 3.6044187,-17.10505 5.4275751,-25.65322 0.1245314,-0.58384 0.3272314,-1.16131 0.5720583,-1.70635 0.4649602,-1.03505 1.2251795,-1.80301 2.3011524,-2.20658 0.685446,-0.25717 1.115769,-0.67029 1.112592,-1.44746 -0.0019,-0.40393 0.237773,-0.61931 0.624768,-0.6687 0.204613,-0.0261 0.412711,-0.0333 0.619086,-0.0336 2.990849,-0.002 5.981893,-0.003 8.973094,0.002 0.280811,8e-4 0.588688,-0.0236 0.834576,0.0801 0.285041,0.1203 0.533929,0.35042 0.764294,0.56844 0.227179,0.21484 0.366876,0.58951 0.624768,0.6904 0.50482,0.19791 0.533554,0.53211 0.522965,0.97203 -0.0208,0.86466 -0.01408,1.7307 -0.0021,2.59571 0.049,3.39513 3.385582,5.43603 6.438882,3.94343 0.11499,-0.0561 0.234296,-0.10184 0.350366,-0.15193 1.715733,3.4822 6.412627,3.48269 8.167979,-0.0191 1.153938,0.64417 2.375148,0.88668 3.671609,0.48627 1.27635,-0.3951 2.169261,-1.23704 2.732649,-2.37969 0.67098,0.19826 1.283861,0.46777 1.92133,0.55138 2.60632,0.3429 4.829683,-1.59055 4.947502,-4.21628 0.0367,-0.81597 0.149111,-1.62909 0.247531,-2.44119 0.0476,-0.3937 0.331538,-0.57412 0.701249,-0.61857 0.2794,-0.0342 0.561514,-0.0608 0.842324,-0.0615 2.859263,-0.005 5.718503,-0.005 8.577771,-0.002 z m -46.887057,3.11195 c -4.784725,-0.0371 -8.6423821,3.91266 -8.6490867,8.67234 -0.00709,4.80836 3.8704277,8.69874 8.6682047,8.69663 4.802717,-0.002 8.699773,-3.89147 8.683191,-8.68784 -0.0159,-4.52896 -3.517535,-8.64127 -8.702309,-8.68113 z m 43.939951,0.41031 c -1.949098,-0.01 -3.56026,1.58707 -3.57084,3.53829 -0.01061,1.95509 1.580671,3.5559 3.540352,3.56154 1.970609,0.005 3.551195,-1.56174 3.558956,-3.52847 0.008,-1.96251 -1.572668,-3.56254 -3.528468,-3.57136 z m -43.738932,1.92237 c 3.38808,0.0159 6.197928,2.9239 6.182053,6.39806 -0.01588,3.52812 -2.887061,6.35731 -6.426483,6.33191 -3.490028,-0.0251 -6.323999,-2.90674 -6.301422,-6.40736 0.02294,-3.57505 2.884726,-6.33954 6.545852,-6.32261 z m 43.683124,0.41289 c 0.699209,-0.0198 1.274008,0.52255 1.281056,1.20871 0.007,0.66321 -0.595283,1.262 -1.257802,1.25212 -0.66498,-0.0109 -1.201497,-0.55545 -1.208196,-1.22679 -0.007,-0.67945 0.507251,-1.21499 1.184942,-1.23404 z m -43.919801,1.1405 c -0.718961,0.007 -1.136092,0.55636 -1.147734,1.51309 -0.0032,0.30021 -5.29e-4,0.60118 -5.29e-4,0.90175 -2.65e-4,0.38947 0,0.77813 0,1.23145 -0.276225,0 -0.477594,7.9e-4 -0.679029,0 -0.601485,-0.003 -1.20463,-0.0276 -1.805056,-0.004 -0.705909,0.0286 -1.184937,0.53693 -1.170472,1.19063 0.01341,0.62829 0.486762,1.0928 1.171503,1.13584 0.224367,0.0141 0.450504,-0.005 0.675929,-0.006 0.591608,-10e-4 1.183423,0 1.799373,0 0,0.8195 0.0011,1.53238 0,2.24534 -0.0019,0.87736 0.44781,1.41812 1.177705,1.41283 0.728136,-0.005 1.171252,-0.54875 1.167371,-1.42575 -0.0028,-0.7114 0,-1.42322 0,-2.23191 0.298804,0 0.520695,0.004 0.74259,-5.3e-4 0.63853,-0.0123 1.281237,0.0175 1.913062,-0.0548 0.617008,-0.0706 0.987107,-0.55494 0.976167,-1.12397 -0.01024,-0.54891 -0.371147,-0.97744 -0.961697,-1.08469 -0.292806,-0.0529 -0.597921,-0.0478 -0.898136,-0.0517 -0.574323,-0.007 -1.149461,-0.002 -1.781286,-0.002 v -0.64027 c 0,-0.48895 0.0034,-0.97711 -0.0011,-1.46606 -0.0088,-0.99166 -0.436496,-1.54808 -1.178739,-1.53996 z m 48.146413,3.63027 c -1.957559,-0.0187 -3.568562,1.56015 -3.584792,3.51348 -0.01619,1.96286 1.556322,3.56701 3.511413,3.58324 1.96533,0.0159 3.563144,-1.54811 3.583244,-3.50779 0.01979,-1.95968 -1.555464,-3.57024 -3.509865,-3.58893 z m -8.335406,0.21549 c -1.96215,-0.0145 -3.564763,1.55935 -3.581694,3.51761 -0.01659,1.95157 1.57053,3.56586 3.52175,3.58066 1.956847,0.0152 3.560259,-1.5646 3.57084,-3.51864 0.01061,-1.97309 -1.551226,-3.56516 -3.510896,-3.57963 z m 8.259445,2.10892 c 0.705209,-0.0198 1.265039,0.522 1.265039,1.22473 0,0.68015 -0.531067,1.21201 -1.214398,1.21801 -0.69074,0.006 -1.217925,-0.50719 -1.228865,-1.19476 -0.0109,-0.68968 0.498072,-1.22893 1.178224,-1.24798 z m -8.252212,0.20618 c 0.672402,0.0208 1.199036,0.57844 1.185974,1.25471 -0.0131,0.67663 -0.557096,1.20062 -1.239716,1.19321 -0.6858,-0.007 -1.211813,-0.53558 -1.211813,-1.2175 2.65e-4,-0.69885 0.570236,-1.25299 1.265555,-1.23042 z"
       style="display:inline;fill:white;fill-opacity:1;fill-rule:evenodd;stroke:none;stroke-width:0.35277778" />
  </g>
</svg>
